<?xml version="1.0" encoding="utf-8"?>
<!-- Generator: Adobe Illustrator 28.0.0, SVG Export Plug-In . SVG Version: 6.00 Build 0)  -->
<svg version="1.1" id="Camada_2" xmlns="http://www.w3.org/2000/svg" xmlns:xlink="http://www.w3.org/1999/xlink" x="0px" y="0px"
	 viewBox="0 0 353 71" style="enable-background:new 0 0 353 71;" xml:space="preserve">
<style type="text/css">
	.st0{enable-background:new    ;}
	.st1{fill:#FFFFFF;}
</style>
<g class="st0">
	<path class="st1" d="M12.3,51.8l2.9-5.1l18.2-34.2l1.9-3.8c0.6-1.1,1.3-2.7,2.4-4.8c4.1,0,7.1,0.1,9,0.1c3.3,0,6.4,0,9.2-0.1
		L61,18.5l10.4,28.1l2,5.1c-4.1,0-6.5-0.1-7.4-0.1c-2,0-4.9,0-8.7,0.1c-1-3.9-2.5-8.4-4.4-13.6H35.2c-2,4.1-4.1,8.7-6.3,13.6
		c-4.4,0-7-0.1-8-0.1C19.1,51.7,16.3,51.7,12.3,51.8z M39.5,27.9h10.9c-2.7-8.2-4.2-12.8-4.4-13.6c-1.5,3.4-2.9,6.2-3.9,8.4
		L39.5,27.9z"/>
	<path class="st1" d="M79.5,56.1c3,1,5.7,1.7,8,2.2c2.3,0.4,4.3,0.6,6,0.6c1.2,0,2.4-0.1,3.4-0.4c1-0.3,1.8-0.6,2.4-1
		s1.1-0.9,1.6-1.5c0.4-0.6,0.8-1.3,1-2c0.2-0.7,0.4-1.6,0.5-2.6c0.1-1,0.2-2.3,0.2-4.1c-0.9,0.8-1.7,1.5-2.4,2
		c-0.7,0.5-1.5,1-2.5,1.4s-2.1,0.8-3.2,1.1c-1.2,0.2-2.4,0.4-3.7,0.4c-3,0-5.6-0.7-8-2.1c-2.4-1.4-4.2-3.3-5.3-5.8
		c-1.2-2.5-1.8-5.2-1.8-8c0-3.4,0.6-6.5,1.9-9.2c1.3-2.7,3.1-5.1,5.4-6.9s4.9-3.2,7.7-3.9c2.8-0.7,6-1.1,9.5-1.1
		c2,0,4.3,0.1,6.9,0.4c2.6,0.2,6.1,0.8,10.6,1.6L117,28.6l-0.7,12.7c0,0.9-0.1,1.7-0.1,2.2l-0.3,11.4c0,1.5-0.2,2.8-0.5,4.1
		c-0.3,1.2-0.7,2.3-1.3,3.3c-0.6,1-1.4,1.9-2.2,2.7c-1,0.8-2.1,1.5-3.3,2c-1.2,0.5-2.7,0.9-4.4,1.3c-1.8,0.3-3.7,0.5-5.7,0.5
		c-1.1,0-2.5-0.1-4.1-0.2c-1.6-0.1-3.3-0.3-5-0.5c-1.7-0.2-3.2-0.4-4.5-0.7c-1.3-0.2-2.8-0.6-4.8-1l-0.2-4.6
		C79.8,61,79.7,59.1,79.5,56.1z M103.5,25.8c-1.4-0.3-2.7-0.4-3.9-0.4c-2.1,0-3.9,0.4-5.4,1.2c-1.5,0.8-2.7,2-3.6,3.6
		c-0.8,1.6-1.3,3.3-1.3,5c0,1.3,0.2,2.4,0.7,3.5c0.4,1.1,1.2,1.9,2.2,2.5c1,0.6,2.1,0.9,3.3,0.9c1.7,0,3.2-0.6,4.5-1.8
		c1.3-1.2,2.2-2.9,2.7-5C103.2,33.3,103.5,30.1,103.5,25.8z"/>
	<path class="st1" d="M124,51.8l1.1-15.6l0.4-8.9c0-1.6,0-3.3,0-4.9c0-1.7,0-3.8-0.1-6.4c2.8,0,5.1,0.1,6.7,0.1c1.9,0,4.2,0,6.7-0.1
		l-0.1,4c0.9-1,1.7-1.8,2.2-2.3c0.6-0.5,1.3-1,2-1.4c0.7-0.4,1.5-0.7,2.4-0.9c0.8-0.2,1.7-0.3,2.6-0.3c0.8,0,1.8,0.1,2.8,0.4
		c0,2.6,0.1,4.7,0.2,6.3l0.2,5.4c-1.3-0.4-2.5-0.6-3.6-0.6c-1.4,0-2.6,0.2-3.6,0.6c-1,0.4-1.9,1-2.7,1.9c-0.8,0.8-1.4,1.9-1.9,3.1
		c-0.5,1.2-0.8,3.2-1,5.9s-0.3,5.8-0.3,9.2c0,1.2,0,2.7,0.1,4.5c-2.3,0-4.6-0.1-6.8-0.1C129,51.7,126.6,51.7,124,51.8z"/>
	<path class="st1" d="M175.8,15c2.9,0,5.7,0.4,8.4,1.3c2.7,0.9,4.9,2.2,6.8,3.8c1.8,1.7,3.2,3.6,4.1,5.9c0.9,2.2,1.3,4.6,1.3,7.2
		c0,2.5-0.4,4.9-1.2,7.1c-0.8,2.3-2.1,4.4-4,6.4c-1.9,2-4.3,3.5-7.1,4.4s-5.9,1.5-9.2,1.5c-3,0-5.8-0.4-8.6-1.3s-5-2.1-6.9-3.8
		c-1.8-1.7-3.2-3.6-4.1-6c-0.9-2.3-1.4-4.7-1.4-7.3c0-2.5,0.5-5,1.4-7.3c0.9-2.3,2.3-4.4,4.3-6.2c2-1.8,4.4-3.3,7.2-4.3
		C169.7,15.5,172.7,15,175.8,15z M175.6,25.3c-1.5,0-2.8,0.4-4,1.2s-2.1,1.9-2.6,3.4c-0.6,1.5-0.9,3.1-0.9,4.9
		c0,2.6,0.6,4.5,1.9,5.9c1.3,1.4,2.9,2.1,4.8,2.1c1.5,0,2.8-0.4,4-1.2c1.2-0.8,2.1-1.9,2.7-3.5c0.6-1.5,0.9-3.2,0.9-4.9
		c0-1.5-0.2-2.8-0.7-3.9c-0.5-1.2-1.2-2.1-2.3-2.8C178.2,25.7,177,25.3,175.6,25.3z"/>
</g>
<g class="st0">
	<path class="st1" d="M199.5,51c-0.3-5-0.7-9-1.1-12c2.6,1.2,5,2,7,2.4s3.8,0.7,5.4,0.7c2,0,3.7-0.3,4.9-0.9
		c1.2-0.6,1.8-1.5,1.8-2.7c0-0.4-0.1-0.8-0.2-1.1c-0.1-0.4-0.3-0.8-0.7-1.2s-0.8-1-1.4-1.5l-6.6-5.8c-1.5-1.3-2.6-2.3-3.2-2.8
		c-1.2-1.2-2.2-2.3-2.9-3.3c-0.7-1-1.2-2.1-1.5-3.1s-0.5-2.2-0.5-3.4c0-1.4,0.3-2.8,0.8-4.2c0.5-1.4,1.3-2.6,2.3-3.8
		c1-1.2,2.3-2.2,4-3.1c1.7-0.9,3.4-1.5,5.3-1.8c1.9-0.3,3.8-0.5,5.9-0.5c4,0,8.3,0.5,12.9,1.4c0.1,1.6,0.2,3.1,0.2,4.4
		c0.1,1.3,0.3,3.7,0.7,7.1c-2.2-0.9-4.1-1.5-5.9-1.8c-1.8-0.3-3.3-0.5-4.6-0.5c-1.8,0-3.3,0.3-4.5,1c-1.2,0.7-1.8,1.5-1.8,2.5
		c0,0.5,0.1,0.9,0.3,1.4c0.2,0.4,0.5,1,1.1,1.6c0.5,0.6,1.2,1.3,2,2c0.8,0.7,2.2,1.8,4,3.2l2.5,2c0.7,0.6,1.6,1.3,2.4,2.2
		c0.9,0.9,1.6,1.7,2.2,2.6s1.1,1.6,1.5,2.3c0.3,0.7,0.6,1.4,0.8,2.1c0.2,0.7,0.2,1.5,0.2,2.3c0,2.1-0.5,4.1-1.5,6
		c-1,1.9-2.4,3.5-4.3,4.7c-1.8,1.2-3.9,2.1-6.1,2.6c-2.2,0.5-4.5,0.7-7,0.7C210,52.7,205.3,52.1,199.5,51z"/>
	<path class="st1" d="M260.1,15c2.9,0,5.7,0.4,8.4,1.3c2.7,0.9,4.9,2.2,6.8,3.8c1.8,1.7,3.2,3.6,4.1,5.9c0.9,2.2,1.3,4.6,1.3,7.2
		c0,2.5-0.4,4.9-1.2,7.1c-0.8,2.3-2.1,4.4-4,6.4c-1.9,2-4.3,3.5-7.1,4.4c-2.9,1-5.9,1.5-9.2,1.5c-3,0-5.8-0.4-8.6-1.3
		s-5-2.1-6.9-3.8c-1.8-1.7-3.2-3.6-4.1-6c-0.9-2.3-1.4-4.7-1.4-7.3c0-2.5,0.5-5,1.4-7.3c0.9-2.3,2.3-4.4,4.3-6.2
		c2-1.8,4.4-3.3,7.2-4.3C254,15.5,257,15,260.1,15z M259.8,25.3c-1.5,0-2.8,0.4-4,1.2s-2.1,1.9-2.6,3.4c-0.6,1.5-0.9,3.1-0.9,4.9
		c0,2.6,0.6,4.5,1.9,5.9c1.3,1.4,2.9,2.1,4.8,2.1c1.5,0,2.8-0.4,4-1.2c1.2-0.8,2.1-1.9,2.6-3.5s0.9-3.2,0.9-4.9
		c0-1.5-0.2-2.8-0.7-3.9c-0.5-1.2-1.2-2.1-2.3-2.8C262.5,25.7,261.3,25.3,259.8,25.3z"/>
	<path class="st1" d="M285.6,51.8c0.3-2.9,0.6-5.2,0.7-7.1c0.2-1.8,0.3-4.2,0.5-7.1c0.2-2.9,0.3-6.1,0.4-9.5
		c0.1-3.5,0.2-7.5,0.3-12.1c3,0,5.5,0.1,7.3,0.1c1.7,0,4,0,7.2-0.1c-0.4,4.4-0.7,8.3-0.9,11.7c-0.2,3.3-0.3,6.9-0.3,10.6
		c-0.1,6.6-0.1,11.2-0.1,13.5c-2.8,0-5.2-0.1-7.2-0.1C291.5,51.7,288.9,51.7,285.6,51.8z M287.8,11.4c0.1-2.8,0.2-5,0.2-6.6
		c0-0.5,0-1.1,0-1.9c2.8,0,5.2,0.1,7.1,0.1c2.6,0,5,0,6.9-0.1c-0.1,0.7-0.1,1.3-0.1,1.8l-0.2,4.4c0,0.7-0.1,1.4-0.1,2.3
		c-2.3,0-4.5-0.1-6.7-0.1C292.8,11.4,290.4,11.4,287.8,11.4z"/>
	<path class="st1" d="M308.2,51.8l0.6-7.6l1.4-26.2l0.4-14.1c3.3,0,5.7,0.1,7.3,0.1c2.1,0,4.5,0,7.1-0.1l-0.8,10.8l-1.3,26.5
		l-0.3,10.6c-2.5,0-4.8,0-6.8,0L308.2,51.8z"/>
</g>
</svg>
